<svg width="256" height="256" viewBox="0 0 256 256" fill="none" xmlns="http://www.w3.org/2000/svg">
  <defs>
    <linearGradient id="bg" x1="36" y1="28" x2="224" y2="236" gradientUnits="userSpaceOnUse">
      <stop stop-color="#0F2747"/>
      <stop offset="1" stop-color="#07111F"/>
    </linearGradient>
    <linearGradient id="glow" x1="60" y1="52" x2="208" y2="212" gradientUnits="userSpaceOnUse">
      <stop stop-color="#2F80ED" stop-opacity="0.95"/>
      <stop offset="1" stop-color="#7DD3FC" stop-opacity="0.6"/>
    </linearGradient>
  </defs>
  <rect width="256" height="256" rx="60" fill="url(#bg)"/>
  <rect x="26" y="26" width="204" height="204" rx="42" fill="url(#glow)" fill-opacity="0.12"/>
  <path d="M73 68H126C155.271 68 179 91.7289 179 121C179 150.271 155.271 174 126 174H111V204H73V68Z" fill="#F8FAFC"/>
  <path d="M111 102H124C134.493 102 143 110.507 143 121C143 131.493 134.493 140 124 140H111V102Z" fill="#07111F"/>
  <path d="M145 68H183L151 116L186 204H147L122 140L145 68Z" fill="#D7EAFE"/>
</svg>
